<mxfile host="app.diagrams.net" modified="2023-05-05T13:19:45.031Z" agent="Mozilla/5.0 (X11; Linux x86_64) AppleWebKit/537.36 (KHTML, like Gecko) Chrome/111.0.0.0 Safari/537.36" version="21.2.9" etag="_knoLal1_bmO7NHz7RAC" type="github">
  <diagram name="第 1 页" id="j9pnIyXoYPEPrxCWxkeF">
    <mxGraphModel>
      <root>
        <mxCell id="0" />
        <mxCell id="1" parent="0" />
      </root>
    </mxGraphModel>
  </diagram>
</mxfile>
